<?xml version="1.0" standalone="no"?>
<!DOCTYPE svg PUBLIC "-//W3C//DTD SVG 20010904//EN"
 "http://www.w3.org/TR/2001/REC-SVG-20010904/DTD/svg10.dtd">
<svg version="1.0" xmlns="http://www.w3.org/2000/svg"
 width="200.000000pt" height="200.000000pt" viewBox="0 0 200.000000 200.000000"
 preserveAspectRatio="xMidYMid meet">
<metadata>
Created by potrace 1.11, written by Peter Selinger 2001-2013
</metadata>
<g transform="translate(0.000000,200.000000) scale(0.100000,-0.100000)"
fill="#000000" stroke="none">
<path d="M883 1987 c-6 -7 -113 -110 -237 -231 -124 -120 -226 -226 -226 -235
1 -9 18 -29 39 -46 157 -123 202 -164 224 -205 49 -92 66 -126 85 -180 43
-120 44 -121 119 -177 41 -30 73 -56 71 -58 -2 -1 -24 -19 -51 -39 l-47 -36
-38 41 c-20 23 -42 51 -49 63 -11 21 -11 21 -17 -4 -25 -120 -30 -197 -29
-460 1 -157 2 -298 3 -315 1 -16 -2 -47 -6 -67 l-6 -38 356 0 356 0 1 83 c1
93 16 72 18 -25 l1 -58 275 0 275 0 0 650 0 650 -32 21 c-18 11 -46 22 -61 26
-18 3 -34 17 -44 37 -15 28 -17 29 -23 11 -4 -11 -6 -23 -3 -27 2 -5 -3 -8
-12 -8 -11 0 -14 6 -9 24 6 25 -8 40 -36 41 -9 0 -17 13 -21 35 -4 19 -7 28
-8 19 0 -8 -6 -20 -13 -27 -9 -9 -14 -6 -23 11 -6 12 -17 21 -23 20 -7 -2 -12
2 -12 8 0 6 -9 8 -20 4 -12 -4 -20 -2 -20 5 0 7 12 10 28 8 24 -3 27 1 30 30
2 18 -1 32 -7 32 -6 0 -11 7 -11 15 0 8 -9 15 -20 15 -24 0 -27 15 -4 24 22 9
24 8 24 -9 0 -8 9 -15 20 -15 13 0 20 7 20 20 0 13 -7 20 -20 20 -11 0 -20 5
-20 10 0 6 -9 10 -20 10 -11 0 -20 4 -20 9 0 14 -42 21 -59 11 -14 -8 -13 -11
7 -16 l22 -6 -25 -24 c-14 -13 -37 -27 -50 -30 -15 -4 -22 -11 -18 -20 7 -18
27 -18 43 1 18 21 32 19 25 -5 -4 -11 -2 -20 4 -20 6 0 11 -7 11 -15 0 -8 -7
-15 -15 -15 -8 0 -15 6 -15 14 0 9 -13 13 -40 13 -41 0 -48 -5 -29 -24 8 -8 0
-11 -29 -10 -29 2 -38 6 -34 16 3 8 1 12 -5 8 -5 -3 -23 7 -38 23 -16 17 -25
30 -19 30 5 1 -2 7 -16 15 -14 7 -24 16 -23 18 1 3 -79 87 -178 186 -177 178
-180 181 -222 181 -23 -1 -47 -6 -54 -13z m777 -452 c0 -8 -4 -15 -10 -15 -5
0 -10 7 -10 15 0 8 5 15 10 15 6 0 10 -7 10 -15z m-125 -44 c3 -5 1 -12 -5
-16 -5 -3 -10 1 -10 9 0 18 6 21 15 7z m-95 -5 c0 -2 -7 -9 -15 -16 -13 -11
-14 -10 -9 4 5 14 24 23 24 12z m80 -41 c0 -8 -4 -15 -10 -15 -5 0 -7 7 -4 15
4 8 8 15 10 15 2 0 4 -7 4 -15z m-215 -49 c-13 -19 -13 -25 -3 -29 9 -4 9 -6
1 -6 -21 -2 -25 20 -7 40 24 26 28 24 9 -5z m-134 -517 c7 -13 -9 -61 -26 -78
-3 -2 -19 7 -37 21 -18 14 -40 27 -48 30 -10 3 -2 12 25 24 47 23 74 24 86 3z
m159 -202 c42 -143 56 -181 64 -169 3 5 -7 51 -24 102 -16 50 -30 99 -30 108
0 30 17 -3 35 -67 9 -36 23 -74 30 -85 9 -14 15 -74 19 -176 6 -151 5 -153 -9
-92 -7 35 -17 73 -20 85 -5 17 -4 19 4 7 9 -12 11 -11 11 8 0 12 -5 21 -11 20
-7 -2 -17 17 -24 42 -7 25 -32 113 -55 195 -23 83 -44 159 -46 170 -9 46 28
-53 56 -148z m-356 60 c17 -13 13 -47 -6 -47 -5 0 -6 5 -3 11 4 5 -1 19 -11
30 -19 21 -7 26 20 6z m-217 -499 c-3 -7 -5 -2 -5 12 0 14 2 19 5 13 2 -7 2
-19 0 -25z"/>
<path d="M1392 465 c0 -16 2 -22 5 -12 2 9 2 23 0 30 -3 6 -5 -1 -5 -18z"/>
<path d="M1438 1563 c7 -3 16 -2 19 1 4 3 -2 6 -13 5 -11 0 -14 -3 -6 -6z"/>
<path d="M1726 1563 c-10 -10 -7 -51 4 -58 8 -5 30 32 30 50 0 7 -28 13 -34 8z"/>
<path d="M1785 1530 c-3 -5 -1 -10 4 -10 6 0 11 5 11 10 0 6 -2 10 -4 10 -3 0
-8 -4 -11 -10z"/>
<path d="M1775 1480 c-3 -5 1 -10 9 -10 9 0 16 5 16 10 0 6 -4 10 -9 10 -6 0
-13 -4 -16 -10z"/>
<path d="M650 923 c-85 -56 -282 -153 -311 -153 -55 0 -123 -102 -179 -268
-22 -64 -40 -108 -40 -97 0 17 -2 17 -10 5 -6 -10 -10 -11 -10 -3 0 7 -5 12
-12 10 -7 -1 -17 8 -23 21 -11 26 -21 28 -29 7 -3 -8 -12 -12 -21 -9 -13 5
-15 -20 -15 -215 l0 -221 320 0 320 0 0 68 c0 89 18 349 31 437 5 39 16 115
24 170 23 171 35 249 41 268 9 28 -25 20 -86 -20z"/>
<path d="M687 550 c-4 -14 -12 -97 -17 -185 -6 -88 -13 -181 -16 -207 -4 -26
-3 -72 1 -102 6 -51 9 -56 31 -56 l24 0 -1 233 c-2 253 -9 360 -22 317z"/>
<path d="M116 467 c3 -10 9 -15 12 -12 3 3 0 11 -7 18 -10 9 -11 8 -5 -6z"/>
</g>
</svg>
